<?xml version="1.0" encoding="UTF-8" standalone="no"?>
<svg
   width="256"
   height="256"
   version="1.1"
   id="svg4"
   sodipodi:docname="icon.svg"
   inkscape:export-filename="icon.svg"
   inkscape:export-xdpi="1536"
   inkscape:export-ydpi="1536"
   inkscape:version="1.2.2 (b0a8486541, 2022-12-01)"
   xmlns:inkscape="http://www.inkscape.org/namespaces/inkscape"
   xmlns:sodipodi="http://sodipodi.sourceforge.net/DTD/sodipodi-0.dtd"
   xmlns:xlink="http://www.w3.org/1999/xlink"
   xmlns="http://www.w3.org/2000/svg"
   xmlns:svg="http://www.w3.org/2000/svg">
  <sodipodi:namedview
     id="namedview62"
     pagecolor="#505050"
     bordercolor="#eeeeee"
     borderopacity="1"
     inkscape:showpageshadow="0"
     inkscape:pageopacity="0"
     inkscape:pagecheckerboard="0"
     inkscape:deskcolor="#505050"
     showgrid="false"
     inkscape:zoom="2.3146699"
     inkscape:cx="96.77406"
     inkscape:cy="33.482097"
     inkscape:window-width="1920"
     inkscape:window-height="997"
     inkscape:window-x="0"
     inkscape:window-y="0"
     inkscape:window-maximized="1"
     inkscape:current-layer="svg4" />
  <defs
     id="defs8">
    <linearGradient
       id="linearGradient8633">
      <stop
         style="stop-color:#ff6674;stop-opacity:1;"
         offset="0"
         id="stop8629" />
      <stop
         style="stop-color:#2beb85;stop-opacity:1;"
         offset="0.72162688"
         id="stop8643" />
      <stop
         style="stop-color:#00f1d9;stop-opacity:1;"
         offset="1"
         id="stop8639" />
    </linearGradient>
    <linearGradient
       xlink:href="#linearGradient8633"
       id="linearGradient8637"
       x1="5"
       y1="8"
       x2="11"
       y2="8"
       gradientUnits="userSpaceOnUse"
       gradientTransform="matrix(18.142857,-1.593047e-7,1.63553e-7,18.142857,-98.291604,29.708394)" />
  </defs>
  <path
     id="rect430"
     style="font-variation-settings:'wght' 299;fill:#e0e0e0;fill-opacity:1;stroke:none;stroke-width:76.835;stroke-linecap:round;stroke-dasharray:none;stroke-opacity:1"
     d="M 73.571429,1 C 33.366897,1 1,33.366897 1,73.571429 V 182.42857 C 1,222.63311 33.366897,255 73.571429,255 H 182.42857 C 222.63311,255 255,222.63311 255,182.42857 V 73.571429 C 255,33.366897 222.63311,1 182.42857,1 Z M 128,37.285715 c 50.25566,0 90.71428,40.458623 90.71428,90.714285 0,50.25566 -40.45862,90.71428 -90.71428,90.71428 -50.255662,0 -90.714285,-40.45862 -90.714285,-90.71428 0,-50.255662 40.458623,-90.714285 90.714285,-90.714285 z" />
  <ellipse
     style="font-variation-settings:'wght' 299;fill:url(#linearGradient8637);fill-opacity:1;stroke:none;stroke-width:82.3232;stroke-linecap:round;stroke-dasharray:none;stroke-opacity:1"
     id="path4949"
     cx="46.85125"
     cy="174.85127"
     transform="rotate(-30)"
     rx="54.42857"
     ry="54.428574" />
  <path
     id="circle6405"
     style="font-variation-settings:'wght' 299;fill:#e0e0e0;fill-opacity:1;stroke:none;stroke-width:82.3232;stroke-linecap:round;stroke-dasharray:none;stroke-opacity:1"
     d="m 208.50186,104.31579 c -0.23877,-0.70865 -0.45322,-1.42552 -0.70867,-2.12611 -0.50727,-1.39069 -1.05772,-2.75297 -1.62995,-4.110494 -0.57222,-1.357522 -1.17185,-2.717138 -1.80721,-4.03962 -0.63537,-1.322487 -1.28778,-2.612312 -1.98435,-3.897881 -0.69669,-1.285566 -1.44109,-2.544789 -2.197,-3.791572 -0.75601,-1.246777 -1.52527,-2.479141 -2.33872,-3.685268 -0.81352,-1.206137 -1.64683,-2.415364 -2.5159,-3.578963 -0.86923,-1.163592 -1.77021,-2.282586 -2.6931,-3.401786 -0.92299,-1.119199 -1.89558,-2.222548 -2.87036,-3.295479 -0.97477,-1.072929 -1.95177,-2.128952 -2.97658,-3.153738 -1.02477,-1.024787 -2.08079,-2.00179 -3.15372,-2.976564 -1.07292,-0.974773 -2.17628,-1.947367 -3.29548,-2.870255 -1.11919,-0.92289 -2.23819,-1.823949 -3.40178,-2.693081 -1.16361,-0.869133 -2.37283,-1.702398 -3.57897,-2.515905 -1.20612,-0.813505 -2.4385,-1.582721 -3.68527,-2.338728 -1.24678,-0.756013 -2.506,-1.500342 -3.79156,-2.196985 -1.28557,-0.696632 -2.5754,-1.348977 -3.89789,-1.984375 -1.32248,-0.6354 -2.68209,-1.234913 -4.03962,-1.807193 -1.35744,-0.57228 -2.71979,-1.122734 -4.1105,-1.630027 -1.39065,-0.507292 -2.7948,-0.976974 -4.21679,-1.417411 -1.42204,-0.440435 -2.87168,-0.868516 -4.32311,-1.240227 -1.45142,-0.371711 -2.91499,-0.69108 -4.39396,-0.992178 -1.479,-0.301118 -2.96018,-0.586377 -4.46484,-0.815014 -1.50459,-0.228636 -3.04269,-0.41266 -4.57115,-0.566964 -1.52854,-0.154215 -3.05616,-0.276261 -4.6066,-0.354349 -1.55042,-0.07811 -3.10697,-0.106326 -4.67745,-0.106326 -0.22588,0 -0.44777,-0.0016 -0.67328,0 a 54.428572,54.428572 0 0 0 -4.78376,21.757256 54.428572,54.428572 0 0 0 0.24801,3.153739 54.428572,54.428572 0 0 1 17.89481,-3.153739 54.428572,54.428572 0 0 1 54.32225,51.203967 54.428572,54.428572 0 0 0 18.92244,-11.37473 z" />
  <path
     id="path7873"
     style="font-variation-settings:'wght' 299;fill:#e0e0e0;fill-opacity:1;stroke:none;stroke-width:82.3232;stroke-linecap:round;stroke-dasharray:none;stroke-opacity:1"
     d="M 176.97155,4.6143983 A 54.428572,54.428572 0 0 0 127.32673,37.285715 c 0.22554,-0.0016 0.44733,0 0.67327,0 1.57048,0 3.12704,0.0283 4.67746,0.106317 1.55042,0.07802 3.0781,0.200062 4.60659,0.354348 1.52847,0.154215 3.06648,0.338328 4.57114,0.566964 1.50467,0.228636 2.98587,0.513896 4.46485,0.815013 1.47896,0.301117 2.94255,0.620487 4.39396,0.992179 1.45143,0.371711 2.90112,0.799792 4.32311,1.240227 1.422,0.440437 2.8261,0.910119 4.21679,1.417412 1.3907,0.507292 2.75298,1.057746 4.1105,1.630027 1.35752,0.572279 2.71713,1.17181 4.03962,1.807191 1.32243,0.6354 2.61232,1.287744 3.89789,1.984375 1.28559,0.696632 2.54478,1.440978 3.79156,2.196986 1.24678,0.756013 2.47915,1.525215 3.68527,2.338729 1.20614,0.813507 2.41536,1.646772 3.57897,2.515904 1.16368,0.869134 2.28258,1.770198 3.40178,2.69308 1.11923,0.922892 2.22256,1.895482 3.29547,2.870257 1.07297,0.974779 2.12896,1.951775 3.15374,2.976562 1.02489,1.024782 2.00179,2.08081 2.97657,3.153739 0.97482,1.072932 1.94737,2.176281 2.87025,3.295479 0.92293,1.119196 1.82396,2.238188 2.6931,3.401786 0.86903,1.163592 1.70234,2.372835 2.5159,3.578964 0.81352,1.206118 1.58278,2.438483 2.33872,3.685267 0.75602,1.246777 1.50042,2.506006 2.197,3.791572 0.69668,1.285567 1.34892,2.575399 1.98435,3.897881 0.63536,1.322487 1.23499,2.682096 1.80721,4.039619 0.57223,1.357522 1.12268,2.719798 1.62995,4.110493 0.25564,0.700605 0.4699,1.417447 0.70867,2.126114 A 54.428572,54.428572 0 0 0 231.40001,59.042961 54.428572,54.428572 0 0 0 176.97144,4.6143892 Z" />
  <circle
     style="font-variation-settings:'wght' 299;fill:#e0e0e0;fill-opacity:1;stroke:none;stroke-width:13.7205;stroke-linecap:round;stroke-dasharray:none;stroke-opacity:1"
     id="circle8602"
     cx="64.5"
     cy="155.21429"
     r="9.0714283" />
  <circle
     style="font-variation-settings:'wght' 299;fill:#e0e0e0;fill-opacity:1;stroke:none;stroke-width:13.7205;stroke-linecap:round;stroke-dasharray:none;stroke-opacity:1"
     id="circle8604"
     cx="100.78571"
     cy="191.5"
     r="9.0714283" />
</svg>
